<?xml version="1.0" standalone="no"?>
<!DOCTYPE svg PUBLIC "-//W3C//DTD SVG 20010904//EN"
 "http://www.w3.org/TR/2001/REC-SVG-20010904/DTD/svg10.dtd">
<svg version="1.0" xmlns="http://www.w3.org/2000/svg"
 width="1280.000000pt" height="1280.000000pt" viewBox="0 0 1280.000000 1280.000000"
 preserveAspectRatio="xMidYMid meet">
<metadata>
Created by potrace 1.15, written by Peter Selinger 2001-2017
</metadata>
<g transform="translate(0.000000,1280.000000) scale(0.100000,-0.100000)"
fill="#000000" stroke="none">
<path d="M5300 12339 c-80 -4 -159 -10 -177 -13 -69 -10 -156 -50 -203 -93
-46 -41 -54 -45 -113 -48 -93 -5 -219 -39 -332 -89 -138 -61 -207 -101 -241
-139 -21 -23 -59 -58 -84 -78 l-46 -36 -59 43 c-43 30 -74 45 -109 49 -29 5
-65 19 -90 37 -28 20 -61 32 -103 38 -33 4 -73 16 -88 26 -24 16 -42 17 -208
8 l-182 -10 -99 -48 c-88 -42 -109 -58 -192 -144 -52 -53 -94 -99 -94 -104 0
-4 -23 -33 -52 -63 -29 -31 -59 -66 -67 -79 -9 -13 -25 -36 -35 -52 -11 -16
-33 -49 -49 -74 l-29 -45 4 -175 c4 -152 8 -184 28 -242 23 -66 23 -67 5 -108
-24 -53 -39 -60 -122 -60 -136 -1 -199 -15 -266 -59 -78 -50 -129 -118 -150
-196 -9 -33 -29 -98 -46 -145 -24 -70 -31 -113 -40 -240 -12 -177 -39 -328
-70 -388 -12 -23 -21 -48 -21 -56 0 -8 -14 -25 -32 -37 -17 -13 -66 -54 -107
-92 -42 -38 -98 -84 -126 -102 -88 -58 -158 -142 -240 -290 -19 -33 -41 -80
-49 -103 -8 -23 -24 -54 -36 -69 -12 -17 -23 -51 -26 -83 -4 -30 -12 -73 -19
-95 -9 -29 -11 -103 -8 -275 4 -230 14 -316 47 -415 8 -22 20 -71 26 -110 7
-38 18 -81 24 -94 8 -19 8 -25 -3 -29 -7 -2 -27 -17 -44 -32 -18 -15 -42 -30
-54 -34 -13 -4 -36 -26 -52 -49 -16 -23 -41 -53 -55 -66 -15 -14 -33 -47 -41
-74 -8 -27 -19 -55 -23 -61 -5 -6 -21 -49 -36 -95 -27 -82 -28 -88 -21 -240 3
-86 8 -168 11 -184 5 -24 2 -29 -25 -38 -31 -11 -201 -210 -201 -236 0 -7 -12
-32 -26 -55 -37 -58 -55 -105 -64 -163 -4 -27 -21 -84 -36 -125 -36 -99 -44
-246 -19 -359 16 -71 20 -79 73 -128 31 -29 69 -55 84 -58 15 -4 31 -11 34
-17 3 -5 19 -18 35 -27 l29 -18 -37 -47 c-21 -27 -53 -67 -72 -89 -36 -45 -64
-102 -76 -157 -4 -19 -20 -59 -36 -88 -15 -29 -30 -74 -34 -100 -3 -26 -13
-70 -21 -98 -27 -85 0 -338 45 -425 12 -22 21 -48 21 -58 0 -20 113 -160 197
-246 27 -27 102 -102 166 -165 130 -126 122 -108 95 -221 -20 -84 16 -289 61
-343 11 -13 9 -21 -12 -48 -34 -46 -45 -82 -52 -168 -4 -41 -15 -104 -26 -139
-15 -50 -19 -92 -18 -210 1 -181 9 -244 36 -273 12 -13 27 -43 33 -68 14 -50
72 -156 134 -242 23 -31 63 -95 90 -142 27 -48 53 -89 58 -92 4 -3 30 -31 56
-62 26 -31 78 -86 114 -121 65 -61 72 -65 220 -117 84 -30 166 -54 184 -54 29
0 33 -4 53 -59 11 -32 21 -82 21 -112 0 -30 7 -76 15 -103 8 -27 15 -60 15
-73 0 -14 18 -55 40 -93 22 -38 43 -84 47 -102 3 -18 26 -73 50 -121 57 -113
154 -216 223 -236 25 -7 56 -19 70 -27 14 -7 59 -30 100 -49 41 -19 87 -42
101 -50 65 -36 176 -55 321 -55 79 0 172 5 208 11 36 5 93 14 127 18 34 5 83
16 110 24 68 21 213 31 213 13 0 -7 37 -48 83 -91 201 -191 216 -207 222 -235
7 -34 68 -92 151 -145 78 -50 273 -142 349 -165 33 -10 90 -32 127 -50 89 -42
207 -54 443 -46 l180 6 82 39 c82 40 96 50 146 110 23 27 30 31 42 21 22 -18
65 -6 169 46 99 50 224 160 247 218 7 17 18 38 25 46 7 8 25 48 39 89 26 70
27 79 21 220 -10 255 -22 327 -61 348 -11 7 -12 25 -6 103 13 147 59 401 81
441 11 20 20 47 20 60 1 13 8 42 16 64 8 22 20 72 26 110 15 90 10 347 -7 394
-7 20 -47 97 -89 171 -42 74 -76 142 -76 150 0 8 15 47 34 85 50 100 106 242
120 300 7 33 10 169 9 410 l-2 360 -35 104 c-20 58 -36 119 -36 135 0 44 -33
153 -63 206 -14 25 -28 63 -32 85 -4 21 -13 52 -22 68 -14 28 -13 31 14 61 43
46 80 105 99 156 12 35 15 66 10 142 -8 130 -26 194 -86 311 -27 54 -50 104
-50 111 0 8 -24 39 -53 71 l-54 57 53 53 c29 30 66 82 83 115 17 34 41 75 54
92 l22 30 -2 598 -2 599 -35 135 c-19 75 -53 174 -75 220 -21 47 -42 100 -46
118 -4 18 -20 58 -35 88 -16 31 -33 74 -39 96 -6 22 -29 70 -51 106 -44 74
-46 78 -27 78 14 0 80 67 149 150 73 90 115 177 155 320 12 47 14 108 8 400
-6 344 -7 345 -37 450 -25 88 -68 286 -68 313 0 4 19 16 43 26 66 28 70 39 65
139 -7 122 -33 178 -114 247 -54 46 -61 55 -44 60 11 3 39 30 62 60 24 30 73
91 111 136 86 104 101 151 91 280 -6 84 -11 99 -61 198 -31 58 -68 124 -84
145 -16 22 -29 44 -29 49 0 12 -69 127 -93 154 -20 22 -19 23 3 80 13 32 29
67 36 78 37 59 54 145 53 262 -1 208 -14 349 -35 380 -10 15 -24 42 -30 59
-19 55 -64 102 -157 165 -49 33 -100 64 -112 69 -12 4 -43 22 -70 39 -27 17
-57 31 -66 31 -10 0 -33 8 -51 19 -46 26 -73 28 -238 20z m135 -108 c63 -13
178 -60 272 -112 53 -29 82 -53 101 -82 14 -23 36 -54 48 -69 24 -30 60 -152
80 -278 16 -94 9 -165 -28 -295 -11 -38 -23 -85 -28 -103 -5 -19 -10 -35 -12
-37 -2 -2 -39 26 -83 62 -44 36 -123 95 -175 131 -52 36 -124 87 -159 114 -84
63 -99 51 -82 -64 3 -19 58 -71 95 -89 37 -19 62 -35 190 -118 63 -42 180
-156 218 -213 19 -29 60 -91 90 -138 93 -140 117 -187 134 -260 14 -62 14 -75
0 -129 -20 -79 -52 -139 -120 -230 -31 -41 -56 -78 -56 -82 0 -4 -26 -16 -58
-27 -56 -19 -59 -19 -93 -2 -82 43 -226 110 -236 110 -6 0 -54 14 -108 30
-151 47 -318 41 -575 -18 -69 -16 -143 -38 -165 -49 -22 -11 -67 -26 -100 -33
-89 -18 -165 -63 -165 -97 0 -32 201 -6 298 38 102 46 297 90 427 96 164 7
291 -28 575 -159 105 -49 197 -120 219 -169 19 -41 15 -75 -18 -154 -28 -67
-12 -356 22 -393 9 -9 18 -30 22 -47 4 -16 15 -57 26 -90 38 -121 54 -558 25
-707 -29 -153 -112 -306 -209 -388 -32 -28 -63 -50 -67 -50 -4 0 -15 11 -24
25 -9 14 -40 40 -69 59 -118 77 -132 54 -52 -82 32 -53 77 -126 101 -162 23
-36 47 -76 52 -90 6 -14 28 -63 50 -110 22 -47 44 -99 48 -115 11 -47 56 -158
75 -185 28 -41 78 -227 90 -335 11 -97 26 -656 24 -880 -1 -96 -5 -122 -33
-203 -57 -166 -166 -296 -347 -415 -99 -65 -198 -112 -380 -178 -197 -72 -318
-154 -284 -195 20 -24 63 -16 155 31 49 25 102 45 117 45 15 0 49 11 75 24 26
13 72 29 102 36 30 6 80 27 110 45 30 18 96 54 145 80 50 26 96 52 103 58 20
16 111 -87 160 -180 47 -90 77 -207 68 -261 -9 -52 -60 -212 -67 -212 -4 0
-25 30 -48 66 -49 78 -105 110 -171 99 -77 -13 -87 -46 -27 -84 18 -11 44 -32
58 -48 38 -40 112 -152 129 -193 7 -19 35 -78 61 -131 29 -59 54 -126 63 -175
9 -43 32 -130 52 -192 37 -120 49 -231 55 -507 5 -221 -22 -344 -138 -623 -36
-86 -71 -179 -78 -207 -7 -27 -31 -96 -54 -151 -23 -56 -41 -108 -41 -117 0
-8 9 -25 19 -38 18 -23 20 -23 53 -7 33 15 69 72 103 160 l10 26 30 -27 c81
-73 107 -156 97 -303 l-4 -67 -109 -119 c-108 -118 -145 -145 -229 -171 -135
-41 -380 -40 -544 3 -149 39 -250 92 -323 170 -91 97 -157 251 -152 357 3 51
-29 106 -54 96 -15 -6 -274 17 -322 28 -54 13 -95 46 -120 96 -54 106 -68 240
-39 390 17 89 31 124 88 208 43 63 45 92 10 115 l-25 17 -137 -133 c-115 -111
-153 -142 -233 -186 -138 -75 -285 -127 -399 -141 -97 -13 -300 -4 -450 20
-82 12 -279 62 -346 87 -75 28 -192 100 -247 151 -131 122 -348 607 -378 843
-16 126 12 338 46 352 18 7 20 50 3 64 -7 5 -80 33 -162 61 -190 65 -232 89
-311 172 -70 75 -125 177 -145 269 l-12 55 35 37 c61 65 114 250 93 331 -6 26
-54 51 -74 38 -17 -10 -102 -124 -102 -136 0 -23 -52 -81 -98 -107 -70 -41
-113 -38 -218 18 -96 50 -101 50 -123 -15 -20 -62 -14 -114 17 -143 15 -14 37
-31 50 -37 21 -11 202 -30 288 -31 30 0 31 -2 37 -54 8 -83 71 -216 139 -294
98 -114 281 -221 393 -232 33 -3 59 -9 58 -15 -1 -5 -9 -28 -17 -51 -10 -26
-16 -91 -18 -190 -3 -154 -4 -148 47 -299 7 -22 43 -107 80 -190 193 -435 288
-573 450 -657 104 -53 243 -95 380 -113 61 -8 131 -20 156 -26 25 -5 162 -11
305 -12 222 -2 265 0 304 15 25 9 64 22 87 28 23 6 75 32 115 58 40 27 98 64
128 84 l55 35 0 -156 c0 -167 9 -207 72 -333 35 -70 127 -165 171 -178 53 -14
181 -12 235 4 l46 14 6 -47 c6 -42 20 -83 44 -121 5 -8 18 -37 28 -63 37 -98
211 -284 291 -311 15 -5 38 -17 52 -26 48 -33 150 -48 410 -59 173 -8 193 -7
307 15 117 23 179 42 251 79 18 9 35 15 38 13 2 -3 0 -27 -6 -54 -5 -27 -12
-66 -15 -86 -4 -24 -11 -38 -20 -38 -8 0 -57 -39 -107 -88 -68 -64 -122 -103
-198 -146 -222 -124 -237 -134 -250 -167 -12 -28 -12 -33 5 -45 27 -20 38 -18
105 16 33 17 67 30 77 30 33 1 97 37 209 118 l112 80 8 -56 c4 -32 7 -71 5
-89 -1 -18 9 -65 23 -106 86 -249 43 -484 -118 -637 -25 -24 -54 -49 -64 -54
-9 -5 -42 -29 -73 -52 l-56 -43 -6 60 c-5 58 -35 135 -53 133 -5 0 -29 -41
-54 -92 -25 -50 -57 -105 -72 -121 -60 -66 -225 -127 -383 -141 -91 -8 -113
-6 -248 21 -82 16 -161 36 -175 43 -15 7 -58 23 -97 35 -142 44 -207 90 -424
300 -109 107 -218 206 -240 220 -22 14 -41 29 -41 33 0 3 21 14 48 24 45 16
168 102 277 192 27 23 74 53 105 68 30 14 76 41 101 59 l46 33 42 -54 c23 -30
46 -54 51 -54 5 0 24 -13 42 -28 18 -16 80 -51 138 -77 95 -44 113 -49 191
-53 69 -3 88 0 99 13 25 30 -2 58 -96 100 -256 111 -306 145 -379 255 -46 69
-78 165 -116 338 -22 98 -48 162 -67 162 -19 0 -35 -59 -40 -143 -4 -73 -1
-95 17 -136 11 -28 21 -60 22 -73 0 -13 6 -39 12 -58 l13 -35 -70 -65 c-38
-36 -72 -66 -76 -68 -16 -6 -215 114 -256 155 -75 72 -92 120 -100 274 l-6
134 36 54 c20 29 36 56 36 61 0 4 25 45 55 91 65 96 70 134 22 157 -27 13 -32
11 -81 -21 -28 -19 -73 -53 -98 -75 -112 -97 -326 -155 -462 -126 -34 7 -66
13 -72 14 -22 0 -25 -33 -6 -54 10 -12 26 -34 36 -49 29 -47 73 -59 205 -55
64 2 123 7 132 12 13 6 21 -11 46 -101 17 -59 41 -148 52 -198 12 -49 30 -99
40 -110 9 -11 35 -46 56 -79 22 -32 56 -71 75 -86 33 -26 120 -71 164 -85 18
-5 18 -7 -5 -31 -13 -14 -60 -50 -105 -79 -62 -41 -109 -62 -210 -93 -279 -87
-410 -112 -604 -112 -83 0 -128 6 -215 29 -122 31 -288 99 -351 142 -70 48
-138 132 -205 255 -72 132 -111 242 -134 384 -9 52 -18 107 -21 122 l-6 27
153 4 c113 3 173 10 224 25 l70 20 6 -102 c4 -82 10 -110 31 -151 30 -58 147
-175 176 -175 11 0 32 -10 47 -22 29 -23 67 -32 201 -47 82 -10 101 -7 209 24
79 23 105 40 105 70 0 41 -43 55 -172 55 -219 1 -296 23 -393 112 -62 57 -95
129 -95 208 0 47 2 51 37 69 21 11 72 53 113 93 41 41 89 84 107 96 59 42 158
152 175 197 16 40 16 46 2 60 -36 35 -63 20 -179 -98 -76 -77 -139 -131 -203
-172 -52 -33 -97 -60 -100 -60 -4 -1 -23 -11 -42 -23 -61 -39 -160 -59 -340
-68 -207 -12 -415 34 -570 126 -130 76 -222 186 -363 431 -93 162 -116 215
-148 351 -32 134 -36 211 -15 321 15 77 59 214 73 228 4 4 30 -3 57 -16 82
-39 141 -49 306 -50 149 0 156 1 192 25 21 14 38 30 38 36 0 15 -57 24 -154
24 -85 0 -189 21 -246 50 -43 22 -117 100 -152 160 -47 81 -68 234 -40 293 14
32 32 122 32 166 0 46 -18 64 -86 84 -28 8 -66 23 -85 32 -42 22 -160 123
-221 190 -58 64 -145 205 -159 259 -6 23 -18 61 -27 86 -12 33 -15 76 -14 162
2 121 4 132 47 283 35 119 45 142 123 260 36 55 66 101 67 102 0 1 32 -9 70
-22 223 -76 267 -86 356 -79 l84 6 63 -71 c35 -39 75 -84 90 -100 15 -15 46
-55 70 -87 246 -338 241 -333 351 -405 127 -83 203 -109 357 -122 146 -11 184
-5 184 33 0 32 -41 50 -207 91 -87 22 -185 52 -218 68 -118 55 -213 145 -299
281 -22 36 -63 99 -91 140 -66 97 -85 139 -85 188 0 90 -17 97 -204 81 l-141
-12 -105 43 c-235 95 -319 149 -407 257 -84 103 -96 138 -91 247 4 76 11 106
42 181 21 50 46 113 56 142 36 101 176 269 218 261 9 -2 33 -28 53 -58 49 -74
169 -186 208 -195 30 -6 31 -9 31 -59 0 -54 17 -117 51 -182 10 -21 19 -44 19
-51 0 -8 17 -32 38 -56 21 -23 46 -55 57 -72 35 -58 148 -185 164 -185 9 -1
34 -9 56 -20 49 -24 64 -24 93 -4 37 26 26 49 -55 121 -149 130 -176 163 -230
273 -70 144 -88 230 -73 352 13 111 69 288 119 377 47 83 124 175 192 230 29
24 55 48 57 52 2 4 -21 15 -51 24 -52 15 -56 15 -89 -5 -57 -33 -228 -249
-228 -287 0 -8 -11 -34 -25 -57 -14 -24 -34 -78 -45 -122 -11 -43 -25 -94 -32
-114 -6 -19 -12 -41 -14 -48 -6 -22 -117 74 -151 130 -89 146 -114 358 -62
522 10 34 19 67 19 75 0 22 84 160 97 161 6 0 24 15 40 34 15 18 44 41 63 51
l35 18 50 -56 c95 -106 178 -143 204 -93 17 30 6 51 -45 86 -21 14 -49 41 -61
60 -12 19 -32 47 -43 63 -12 15 -37 69 -55 121 -18 51 -37 102 -43 112 -43 82
-78 377 -68 574 9 166 34 265 103 405 78 155 118 210 218 293 33 27 101 87
150 132 50 46 108 91 130 101 l40 18 35 -34 c29 -28 50 -37 124 -54 128 -28
145 -15 90 70 -26 41 -34 64 -34 100 0 55 -14 71 -73 78 -28 4 -45 13 -52 27
-7 14 -7 92 0 250 9 195 14 236 31 274 11 25 31 78 43 119 18 59 32 84 72 126
46 49 55 54 148 79 104 28 255 51 278 42 10 -4 8 -16 -11 -58 -47 -103 -56
-155 -56 -316 0 -124 3 -153 16 -166 19 -19 35 -20 57 -3 13 9 17 35 20 117 5
117 25 221 57 293 l21 48 30 -26 c37 -30 82 -32 125 -6 37 22 56 78 60 174 3
74 9 84 69 109 16 7 63 30 104 51 41 20 82 37 91 37 31 0 138 41 144 56 8 21
-4 45 -29 54 -35 13 -167 -13 -219 -44 -24 -14 -53 -26 -63 -26 -10 0 -38 -14
-63 -30 -25 -16 -49 -30 -53 -30 -20 0 -154 -64 -174 -83 -13 -11 -24 -19 -25
-16 -21 34 -28 54 -28 81 0 18 -12 60 -26 93 -38 88 -44 205 -14 282 12 32 26
65 31 73 5 8 18 34 29 57 25 56 101 157 200 269 105 117 184 165 317 189 80
15 109 15 209 6 63 -6 125 -18 137 -25 12 -8 40 -19 62 -26 22 -7 67 -25 101
-41 33 -15 72 -31 86 -34 14 -4 35 -20 47 -36 12 -16 30 -29 40 -29 31 0 31
-11 0 -68 -16 -30 -29 -65 -29 -77 0 -25 -16 -29 -192 -41 -54 -4 -105 -12
-114 -18 -13 -10 -8 -17 36 -45 l52 -34 108 7 107 7 7 -78 c4 -43 12 -98 18
-123 6 -25 11 -117 12 -205 l1 -160 55 3 c62 3 84 21 76 62 -3 14 -10 70 -16
125 -12 113 -24 205 -41 316 -11 70 -10 82 8 135 12 33 26 78 32 101 7 25 31
63 59 95 26 29 60 72 75 96 15 23 33 42 39 42 6 0 21 9 33 20 21 19 79 53 170
98 67 33 179 69 239 76 l48 6 -24 -33 c-34 -44 -118 -319 -118 -384 0 -2 -17
-10 -38 -19 -43 -17 -76 -56 -96 -112 -10 -28 -11 -66 -5 -157 l9 -120 57 -53
c31 -29 73 -57 92 -63 45 -13 267 -6 336 11 28 6 63 13 78 14 45 4 50 19 17
51 l-30 29 -68 -13 c-118 -23 -143 -23 -202 1 -49 21 -57 29 -87 86 -50 96
-44 168 16 187 27 8 32 27 38 130 10 163 70 333 160 449 49 64 138 110 258
136 91 20 140 20 230 1z"/>
<path d="M4050 10741 c-107 -42 -224 -131 -262 -199 -58 -103 -58 -104 -68
-268 -5 -87 -7 -173 -4 -191 l6 -32 -93 6 c-65 3 -120 14 -180 34 -48 16 -94
29 -103 29 -19 0 -21 -27 -5 -85 15 -54 42 -81 108 -106 49 -18 71 -20 176
-16 66 2 127 7 135 10 10 5 26 -9 50 -42 42 -59 72 -80 170 -122 61 -25 95
-33 177 -38 56 -4 105 -10 108 -13 4 -3 -2 -23 -13 -45 -26 -53 -47 -204 -33
-232 13 -23 19 -25 53 -12 23 9 62 81 110 206 30 80 61 130 113 185 49 51 68
117 41 139 -8 7 -21 9 -28 5 -30 -19 -167 -136 -170 -146 -5 -13 -232 65 -328
113 -170 84 -209 255 -119 527 24 74 71 134 141 182 28 19 54 42 58 50 4 8 12
25 19 38 11 22 8 43 -7 42 -4 -1 -27 -9 -52 -19z"/>
<path d="M5243 9960 c-41 -26 -75 -66 -129 -155 -44 -71 -49 -86 -49 -136 l1
-57 -46 -5 c-190 -23 -283 -57 -388 -141 -122 -97 -181 -175 -309 -406 -122
-221 -183 -309 -283 -411 -88 -90 -104 -101 -221 -158 l-126 -62 -102 21
c-173 35 -303 92 -369 162 -22 24 -52 56 -65 72 -29 36 -42 30 -72 -36 -29
-63 -22 -100 34 -167 88 -105 226 -144 564 -157 75 -3 137 -9 137 -13 0 -4 -5
-12 -11 -18 -6 -6 -13 -53 -16 -105 -5 -80 -2 -104 17 -163 35 -110 85 -207
128 -248 l39 -39 -47 -47 c-27 -27 -61 -73 -76 -102 -25 -49 -27 -63 -25 -149
4 -173 30 -241 127 -328 89 -80 171 -128 264 -155 62 -18 98 -22 212 -21 l137
1 4 -141 c2 -77 6 -150 8 -160 3 -17 -5 -21 -62 -32 -83 -15 -125 -36 -219
-106 -104 -78 -181 -165 -227 -258 -10 -19 -29 -53 -44 -75 -46 -69 -59 -112
-59 -192 0 -41 -4 -72 -8 -69 -5 3 -52 16 -105 30 -86 23 -105 24 -189 16
-174 -16 -317 -55 -459 -125 -40 -19 -73 -34 -74 -33 -1 2 -10 27 -19 56 -40
120 -142 233 -260 287 -131 59 -338 85 -406 50 -31 -16 -39 -33 -17 -39 6 -2
36 -11 66 -20 29 -9 73 -16 96 -16 61 0 165 -35 222 -74 62 -43 126 -121 148
-182 35 -95 78 -183 101 -205 29 -28 54 -21 119 31 110 88 355 180 480 180 33
0 105 -11 160 -25 55 -14 110 -25 122 -25 24 0 27 -13 38 -175 4 -49 15 -114
26 -144 10 -31 19 -66 19 -78 0 -33 46 -120 69 -133 25 -13 60 -13 100 1 28
10 32 15 26 38 -4 14 -19 46 -35 71 -62 97 -94 223 -108 417 -8 120 -4 147 41
264 48 124 97 200 184 287 95 94 152 126 296 162 84 20 90 21 137 5 81 -27
164 -106 199 -191 15 -38 98 -119 129 -127 16 -4 30 1 43 14 10 10 23 19 27
19 5 0 27 13 49 29 59 43 111 67 172 80 120 25 248 -33 306 -140 29 -54 103
-129 138 -142 37 -13 47 2 47 69 0 79 -22 126 -92 200 -37 40 -69 61 -133 88
-77 33 -91 36 -185 36 -104 0 -143 -9 -287 -66 -34 -13 -63 -24 -66 -24 -3 0
-10 20 -16 44 -15 61 -113 159 -199 199 -56 26 -71 29 -126 24 l-62 -6 -4 77
c-9 159 -6 193 30 282 29 71 44 94 94 142 34 32 64 58 68 58 3 0 21 18 38 40
62 78 4 114 -97 60 -83 -44 -128 -83 -160 -138 -15 -26 -38 -62 -52 -81 l-26
-34 -110 6 c-178 11 -329 68 -406 155 -41 48 -78 132 -86 198 -7 57 21 138 67
194 36 44 60 96 60 131 0 10 -23 49 -51 86 -94 124 -149 283 -122 354 8 19 10
56 6 95 -5 50 -3 68 10 82 8 9 30 43 49 74 20 35 62 81 110 122 43 37 85 81
94 99 9 17 38 60 65 94 27 34 51 74 55 90 4 15 36 78 71 139 34 61 63 116 63
121 0 6 27 52 60 102 72 109 168 206 251 250 147 79 404 118 634 97 64 -6 84
-5 100 7 16 12 17 19 8 39 -15 34 -71 48 -193 48 l-102 0 7 47 c8 54 31 117
55 153 35 51 61 112 55 129 -8 26 -49 31 -82 11z"/>
<path d="M3075 9921 c-15 -25 -38 -107 -65 -228 -27 -119 -30 -151 -30 -303 0
-134 3 -176 16 -203 15 -32 15 -34 -20 -94 -28 -48 -144 -186 -261 -311 -17
-19 -110 111 -145 203 -58 150 -62 248 -21 437 30 132 52 174 136 257 87 86
95 111 36 111 -35 0 -50 -9 -118 -68 -99 -85 -149 -140 -168 -184 -9 -22 -17
-90 -21 -180 l-7 -144 -109 -2 c-115 -1 -146 -8 -358 -83 -14 -4 -37 -11 -52
-14 -25 -5 -58 -47 -58 -73 0 -13 69 -82 81 -82 15 0 50 20 73 42 34 32 182
99 218 99 18 0 72 -3 120 -7 l87 -6 6 -37 c3 -20 8 -47 10 -61 2 -14 19 -52
39 -85 19 -33 43 -78 54 -100 10 -22 40 -61 66 -87 l47 -48 -28 -39 c-15 -21
-61 -83 -102 -136 -41 -54 -81 -116 -88 -139 -8 -22 -23 -54 -33 -71 -10 -16
-33 -74 -51 -127 -18 -54 -35 -98 -38 -98 -3 0 -16 18 -29 40 -29 51 -107 109
-224 165 -83 41 -98 45 -165 45 -77 0 -213 -25 -213 -40 0 -4 23 -22 50 -40
45 -29 56 -32 96 -26 33 4 62 0 106 -15 100 -33 134 -55 228 -146 49 -47 98
-91 108 -99 18 -12 18 -17 5 -101 -10 -61 -13 -142 -11 -263 4 -153 7 -182 27
-230 13 -30 27 -81 32 -114 10 -60 66 -185 101 -222 l19 -21 -63 -22 c-69 -24
-84 -32 -149 -75 -115 -76 -189 -159 -189 -215 -1 -15 -7 -37 -15 -51 -19 -34
-19 -96 0 -104 8 -3 25 -2 38 3 32 12 132 135 160 197 22 47 56 74 173 134
l106 55 36 -45 c77 -95 240 -254 302 -294 118 -76 269 -136 344 -136 37 0 60
23 53 52 -6 21 -31 36 -159 94 -83 38 -181 90 -218 115 -82 58 -221 207 -302
325 -99 145 -133 227 -169 404 -31 154 -31 156 -20 295 26 314 123 561 332
842 104 139 241 282 312 325 21 13 54 33 73 45 19 13 47 26 62 29 15 4 38 14
51 22 29 20 26 59 -14 152 -15 36 -41 101 -56 145 -28 76 -29 86 -23 190 4 84
13 131 36 199 36 107 35 173 -2 224 -25 33 -35 38 -45 23z"/>
<path d="M5210 8973 c-25 -9 -97 -53 -160 -99 -63 -47 -149 -101 -190 -122
-70 -34 -81 -37 -160 -36 -47 1 -98 7 -114 13 -16 6 -30 10 -32 8 -2 -2 -1
-39 3 -81 6 -73 8 -79 36 -96 39 -24 195 -37 228 -20 21 12 26 9 61 -31 77
-89 116 -196 139 -380 l12 -96 -38 -119 c-22 -65 -39 -138 -39 -162 -1 -47 5
-44 -128 -71 -41 -9 -61 -19 -73 -37 -9 -13 -13 -29 -10 -33 8 -13 91 -11 160
4 94 21 233 28 297 16 98 -18 147 -46 366 -208 60 -45 92 -53 112 -28 21 25
-6 70 -89 146 -88 81 -188 143 -257 160 -27 7 -102 15 -167 18 l-117 6 30 37
c55 66 63 118 57 335 -5 164 -10 201 -28 245 -11 29 -25 63 -30 76 -5 13 -32
58 -59 99 -43 65 -48 79 -37 92 7 9 44 52 83 96 38 44 78 93 87 108 10 15 30
32 44 38 51 19 133 74 133 89 -1 43 -49 56 -120 33z"/>
<path d="M4551 5215 c-66 -76 -74 -105 -75 -270 0 -172 15 -238 66 -280 l29
-24 -26 -7 c-50 -12 -246 12 -385 47 -161 42 -234 81 -319 175 -61 66 -118
114 -137 114 -17 0 -27 -53 -20 -105 9 -55 70 -127 137 -159 26 -13 69 -41 96
-63 85 -70 150 -91 319 -104 82 -7 223 -14 314 -16 l165 -4 55 29 c30 16 78
37 106 46 l51 17 122 -56 c177 -81 405 -136 447 -107 21 14 23 40 4 57 -11 10
-80 32 -154 50 -145 34 -204 64 -230 113 -8 15 -32 37 -54 50 -46 26 -104 28
-250 8 l-94 -12 -24 29 c-36 42 -53 80 -73 157 -16 61 -17 75 -5 121 8 29 20
59 28 68 8 9 19 40 24 70 9 47 7 56 -9 72 -31 31 -72 24 -108 -16z"/>
<path d="M2985 5028 c-48 -57 -95 -163 -101 -231 -3 -34 -19 -109 -34 -167
-47 -175 -63 -339 -41 -415 12 -43 86 -139 129 -169 21 -14 71 -39 112 -56 62
-26 95 -33 194 -40 65 -4 135 -6 155 -3 51 7 165 51 196 75 l25 20 35 -31 c48
-42 162 -93 335 -150 210 -70 253 -76 560 -76 l265 0 60 27 c33 14 61 26 62
25 0 -1 -3 -54 -7 -117 -10 -131 -3 -181 37 -243 69 -108 104 -126 259 -134
107 -6 111 -5 127 17 8 12 13 29 10 36 -3 8 -55 45 -117 83 -182 114 -181 113
-196 165 -9 32 -10 66 -5 109 4 34 8 81 9 105 l1 42 107 54 c185 94 267 168
285 258 7 34 -14 58 -49 58 -10 0 -69 -46 -130 -102 -95 -86 -128 -109 -213
-148 -115 -54 -290 -113 -389 -130 -45 -8 -105 -10 -175 -6 -355 23 -593 112
-775 291 l-70 67 -25 -30 c-16 -19 -48 -37 -86 -50 -33 -11 -91 -31 -130 -45
-64 -23 -77 -24 -153 -17 -138 14 -256 81 -302 171 -48 93 -47 191 5 339 23
65 32 102 60 235 8 39 21 92 29 120 11 43 11 53 -2 72 -19 30 -25 29 -57 -9z"/>
<path d="M7193 12340 c-18 -4 -39 -13 -47 -19 -7 -6 -36 -18 -64 -26 -28 -9
-54 -20 -57 -25 -4 -6 -30 -22 -58 -37 -84 -42 -210 -131 -235 -166 -13 -18
-39 -65 -58 -105 -34 -72 -34 -73 -44 -280 -11 -225 -7 -268 35 -357 65 -136
74 -163 60 -175 -14 -12 -82 -127 -97 -163 -4 -10 -21 -37 -37 -60 -15 -23
-53 -88 -82 -145 l-54 -104 -3 -108 c-3 -92 -1 -115 17 -155 19 -43 101 -150
129 -168 7 -4 28 -31 46 -59 19 -28 47 -59 61 -68 l27 -18 -56 -42 c-75 -57
-112 -132 -121 -247 -4 -50 -2 -89 4 -101 6 -11 33 -29 62 -41 44 -19 50 -25
45 -44 -4 -12 -14 -60 -22 -107 -9 -47 -25 -112 -35 -145 -45 -139 -48 -168
-50 -525 l-1 -345 29 -90 c35 -104 81 -192 132 -251 20 -22 53 -62 75 -88 21
-26 49 -52 62 -58 31 -15 30 -21 -10 -82 -19 -28 -41 -74 -49 -102 -8 -28 -26
-73 -40 -100 -14 -27 -30 -68 -36 -90 -6 -23 -29 -80 -51 -127 -21 -47 -53
-139 -70 -204 l-31 -118 -10 -480 c-6 -264 -9 -536 -7 -605 l4 -125 47 -77
c26 -43 47 -80 47 -83 0 -12 55 -81 87 -110 l34 -30 -49 -55 c-27 -30 -54 -71
-61 -90 -6 -19 -22 -51 -34 -70 -24 -37 -54 -110 -81 -197 -10 -33 -16 -89
-16 -158 0 -121 15 -165 91 -264 l41 -54 -16 -34 c-9 -19 -16 -44 -16 -57 0
-13 -14 -50 -30 -81 -32 -60 -70 -189 -70 -235 0 -14 -14 -64 -31 -111 l-31
-84 -9 -335 c-10 -364 -6 -416 38 -530 14 -36 36 -92 49 -125 12 -33 34 -82
48 -109 15 -27 26 -61 26 -74 0 -14 -33 -84 -73 -156 -40 -72 -79 -146 -87
-164 -9 -23 -13 -85 -14 -195 -1 -193 14 -283 70 -437 24 -66 57 -245 79 -425
11 -99 11 -100 -11 -122 -32 -30 -33 -36 -55 -325 -11 -145 -10 -147 15 -220
61 -178 151 -285 310 -368 100 -53 146 -66 172 -52 14 8 27 0 65 -42 66 -73
163 -117 279 -127 119 -11 299 -10 403 1 66 7 103 17 150 40 34 18 94 41 132
52 39 10 90 31 115 44 25 14 71 36 103 49 118 49 267 168 280 226 4 15 60 75
144 154 76 71 144 139 152 151 13 20 20 22 90 18 42 -3 108 -13 146 -24 39
-10 111 -25 160 -32 100 -15 408 -17 470 -4 54 12 262 103 302 132 17 13 38
24 47 24 76 0 203 123 272 263 24 51 44 101 44 112 0 11 20 54 45 95 30 50 45
87 45 110 0 19 7 57 15 84 8 27 15 70 15 95 0 25 8 68 18 96 17 49 19 50 66
57 27 4 72 16 100 27 28 11 88 32 132 46 81 25 83 26 203 146 102 101 131 139
191 239 39 66 82 132 94 147 38 46 114 187 121 226 4 20 17 48 30 63 12 14 26
49 31 78 13 75 6 352 -10 411 -14 51 -25 110 -32 180 -5 52 -12 73 -40 116
l-22 36 34 88 c34 85 35 91 30 189 -3 55 -8 124 -11 151 l-7 50 137 130 c172
164 331 345 340 388 4 18 13 41 19 52 22 36 34 92 57 279 9 75 9 94 -5 130 -9
23 -16 55 -16 72 0 35 -27 119 -47 149 -7 11 -24 57 -38 102 -21 68 -37 97
-100 177 l-75 96 32 30 c18 16 40 30 50 30 26 0 135 88 145 117 31 85 37 125
36 221 -2 112 -14 180 -46 252 -12 25 -24 71 -28 103 -5 38 -18 76 -41 115
-19 32 -40 72 -46 90 -6 19 -40 66 -75 105 -35 40 -66 79 -70 89 -3 9 -22 22
-41 29 l-36 13 7 191 c7 207 5 219 -53 355 -12 30 -25 66 -28 80 -8 36 -130
176 -160 184 -15 3 -26 10 -26 15 0 5 -15 19 -34 30 l-34 21 14 41 c8 22 18
68 23 103 5 35 14 73 19 83 30 56 43 165 49 403 5 209 3 253 -11 299 -9 30
-16 69 -16 85 0 17 -9 47 -20 66 -11 19 -25 46 -31 60 -49 107 -77 160 -128
237 -64 96 -112 146 -181 186 -25 14 -87 65 -139 112 -51 47 -97 85 -102 85
-5 0 -9 7 -9 15 0 9 -11 37 -24 63 -38 77 -62 216 -82 487 -4 57 -15 113 -31
155 -14 36 -34 96 -45 135 -23 79 -67 140 -135 185 -80 54 -96 59 -219 65 -65
3 -128 8 -139 10 -11 3 -30 24 -43 48 l-23 44 20 59 c31 90 41 166 41 298 l0
120 -42 70 c-73 121 -148 214 -298 366 -78 78 -109 103 -172 132 -106 51 -131
56 -309 64 -137 6 -161 4 -190 -11 -19 -9 -61 -21 -93 -25 -39 -6 -73 -19
-100 -38 -23 -16 -61 -33 -86 -37 -55 -9 -73 -18 -128 -62 l-43 -35 -42 38
c-23 21 -64 60 -92 87 -47 45 -180 115 -309 163 -73 27 -199 55 -263 58 -58 3
-66 6 -103 44 -29 28 -65 50 -120 71 -71 27 -94 31 -232 36 -84 3 -162 8 -173
9 -11 2 -35 0 -52 -4z m280 -110 c56 -12 126 -33 155 -48 140 -69 251 -288
266 -524 7 -106 17 -132 53 -150 57 -27 52 -117 -10 -210 -46 -68 -139 -88
-274 -58 -59 13 -62 12 -91 -11 -32 -25 -41 -48 -19 -50 23 -1 62 -8 112 -20
84 -20 296 -23 338 -5 50 20 124 83 136 115 5 14 12 76 16 138 5 101 4 115
-16 157 -21 47 -42 67 -96 97 -25 14 -31 25 -42 85 -16 93 -78 277 -102 308
-27 34 -25 37 24 30 106 -15 319 -104 394 -164 17 -14 43 -33 57 -43 14 -10
35 -36 46 -57 11 -22 28 -44 39 -49 28 -15 78 -100 87 -146 4 -22 13 -54 21
-72 18 -43 17 -162 -2 -206 -9 -22 -15 -68 -15 -114 0 -43 -4 -92 -9 -108 -13
-46 -22 -178 -14 -191 5 -7 34 -15 66 -19 l57 -7 0 148 c0 88 6 184 15 234 8
47 15 108 15 137 l0 52 123 -2 c116 -2 124 -1 157 23 19 14 37 26 40 28 18 12
-44 30 -123 36 -191 14 -197 15 -197 46 0 15 -11 48 -25 74 -30 57 -31 66 -5
66 12 0 32 12 45 26 24 26 140 83 221 109 23 7 56 21 73 30 18 9 81 20 146 27
99 9 127 8 205 -7 105 -20 225 -83 274 -142 17 -20 45 -50 63 -66 18 -17 47
-53 65 -81 18 -28 46 -69 64 -91 18 -22 39 -56 48 -75 9 -19 23 -46 30 -60 42
-76 57 -136 50 -211 -3 -41 -10 -83 -14 -94 -29 -66 -40 -101 -40 -130 0 -33
-26 -95 -40 -95 -4 0 -13 7 -20 15 -14 17 -149 85 -168 85 -6 0 -33 14 -59 30
-26 17 -53 30 -60 30 -8 0 -37 12 -66 27 -55 28 -187 56 -215 46 -41 -15 -42
-57 -2 -78 16 -8 56 -21 89 -29 33 -8 84 -28 114 -45 30 -17 61 -31 69 -31 8
0 35 -13 61 -30 l47 -30 0 -68 c0 -38 7 -90 16 -116 13 -38 23 -50 53 -62 51
-22 74 -20 114 10 l34 26 22 -57 c31 -80 42 -139 49 -275 4 -64 9 -119 12
-121 3 -3 17 -8 32 -12 21 -5 30 -2 43 19 14 21 16 48 13 180 -2 107 -7 159
-15 168 -7 6 -13 23 -13 37 0 15 -11 50 -25 79 -14 30 -22 58 -19 64 7 10 76
5 174 -13 215 -41 284 -92 335 -251 13 -40 31 -93 40 -118 22 -57 42 -478 25
-510 -8 -15 -21 -20 -50 -20 -50 0 -70 -21 -70 -71 0 -41 -18 -85 -51 -128
-22 -28 -24 -57 -5 -64 12 -5 90 8 174 28 12 3 39 21 60 39 35 32 39 33 67 21
30 -12 241 -192 363 -308 56 -54 167 -256 188 -342 4 -16 14 -43 22 -60 36
-71 46 -329 22 -544 -12 -106 -34 -188 -88 -336 -44 -120 -48 -129 -74 -161
-13 -16 -29 -41 -35 -55 -6 -15 -31 -40 -54 -55 -56 -38 -66 -56 -51 -88 17
-39 57 -34 122 14 29 22 61 52 70 67 9 16 27 36 38 47 20 17 23 18 55 2 19 -8
46 -32 61 -51 15 -19 33 -35 40 -35 19 0 85 -116 108 -190 45 -150 50 -236 22
-375 -29 -140 -75 -222 -167 -296 l-51 -40 -13 43 c-8 24 -23 78 -34 121 -10
43 -32 104 -49 135 -16 31 -30 62 -30 68 0 20 -101 159 -157 216 -71 72 -94
82 -152 65 -25 -7 -46 -17 -48 -23 -2 -6 21 -30 52 -54 107 -82 203 -228 258
-390 82 -243 76 -376 -25 -579 -57 -114 -70 -129 -205 -245 -51 -44 -95 -86
-97 -93 -9 -22 12 -52 38 -59 15 -3 50 5 93 21 58 24 76 37 123 93 30 36 63
80 74 96 10 17 36 50 57 73 22 24 39 48 39 55 0 6 9 30 20 52 34 71 60 158 60
201 0 38 3 42 35 54 44 16 162 132 210 207 l35 55 28 -20 c91 -68 161 -157
196 -252 13 -35 38 -99 55 -142 66 -162 65 -268 -2 -370 -73 -108 -150 -176
-267 -234 -58 -29 -148 -69 -199 -90 l-95 -37 -136 13 c-185 16 -210 5 -210
-93 0 -51 -14 -77 -147 -280 -172 -261 -256 -318 -573 -392 -165 -38 -195 -58
-163 -104 15 -22 19 -22 137 -16 140 8 201 23 305 76 158 79 192 113 411 414
19 27 45 62 58 79 13 17 62 74 110 125 l87 94 79 -6 c84 -7 102 -3 331 72 44
15 83 27 87 27 20 0 162 -235 178 -295 6 -25 23 -81 37 -125 23 -70 27 -97 27
-215 1 -121 -2 -144 -27 -220 -15 -47 -38 -103 -52 -125 -13 -22 -33 -56 -43
-75 -24 -42 -155 -178 -235 -242 -32 -26 -81 -54 -110 -63 -128 -41 -130 -43
-115 -141 5 -38 11 -80 13 -93 2 -13 8 -28 14 -34 18 -18 13 -140 -9 -209 -29
-96 -98 -182 -190 -239 -43 -27 -120 -41 -253 -49 -70 -3 -132 -11 -137 -16
-6 -6 4 -21 28 -39 l37 -30 155 0 c165 1 231 11 314 51 27 13 50 23 52 21 1
-1 11 -24 22 -52 32 -81 50 -154 63 -255 12 -94 11 -98 -21 -230 -37 -155 -59
-208 -159 -380 -141 -241 -228 -344 -358 -421 -148 -87 -298 -124 -508 -124
-180 0 -296 18 -377 58 -35 17 -65 31 -68 32 -3 0 -34 19 -69 40 -94 59 -167
120 -260 217 -86 91 -108 102 -146 74 -18 -13 -19 -17 -6 -53 16 -42 125 -166
186 -211 22 -16 68 -58 103 -94 34 -36 80 -73 101 -83 36 -16 39 -21 43 -64 9
-94 -50 -202 -142 -261 -81 -52 -122 -61 -307 -68 -158 -7 -175 -9 -194 -28
-41 -42 -13 -67 116 -107 82 -25 96 -27 180 -17 141 16 169 23 201 47 17 12
41 23 54 23 32 0 144 119 176 186 21 45 25 68 25 148 l1 94 61 -14 c34 -8 75
-19 91 -24 16 -6 92 -10 168 -10 l139 0 -7 -22 c-4 -13 -17 -79 -30 -148 -28
-158 -54 -232 -121 -347 -29 -51 -53 -96 -53 -101 0 -20 -112 -141 -156 -170
-55 -35 -265 -123 -334 -140 -116 -28 -146 -32 -242 -32 -181 1 -343 31 -614
116 -111 34 -201 84 -294 163 l-35 29 30 7 c32 8 124 57 165 87 31 24 114 138
141 195 10 23 30 90 44 150 39 170 60 229 82 224 10 -2 70 -6 134 -8 138 -5
161 3 214 75 56 77 48 89 -50 68 -77 -16 -149 -9 -275 25 -67 18 -169 71 -178
91 -2 4 -38 32 -81 62 -60 43 -83 54 -102 49 -56 -14 -54 -70 7 -159 25 -36
48 -74 51 -83 3 -9 20 -36 38 -61 17 -25 34 -52 37 -61 3 -9 3 -75 -2 -147 -7
-115 -11 -136 -36 -182 -38 -69 -91 -116 -212 -184 l-102 -58 -27 22 c-15 11
-49 41 -75 66 l-47 44 15 68 c9 37 23 83 31 102 33 75 25 239 -14 272 -25 21
-48 -24 -78 -156 -39 -177 -54 -224 -85 -285 -63 -124 -151 -195 -340 -276
-144 -62 -182 -87 -173 -114 10 -26 24 -31 102 -31 67 0 84 4 175 46 116 53
217 118 240 154 9 14 25 35 35 48 l20 23 46 -35 c25 -19 74 -49 108 -65 35
-17 83 -48 108 -69 96 -84 212 -165 261 -183 29 -10 54 -19 55 -19 2 0 3 -4 3
-9 0 -5 -9 -13 -21 -16 -22 -7 -118 -94 -331 -301 -150 -146 -204 -180 -396
-250 -84 -30 -143 -45 -337 -84 -51 -10 -221 4 -300 25 -33 9 -93 32 -133 52
-84 41 -125 86 -165 182 -15 35 -34 72 -41 83 -13 19 -14 18 -35 -11 -14 -20
-24 -53 -29 -102 l-7 -72 -50 40 c-27 21 -66 48 -85 60 -19 12 -51 39 -71 60
-93 97 -132 186 -150 340 -8 70 -6 97 11 175 11 51 30 116 41 145 13 31 19 63
15 80 -3 15 -2 54 2 86 l7 59 93 -69 c127 -94 171 -120 215 -128 21 -4 62 -20
90 -36 56 -31 86 -36 105 -17 18 18 14 44 -10 72 -20 22 -182 118 -299 177
-20 10 -77 56 -126 102 -50 47 -100 90 -112 96 -14 8 -21 21 -21 41 0 15 -5
51 -12 79 -6 28 -9 54 -5 57 3 3 21 -3 39 -14 38 -23 129 -52 243 -78 126 -28
441 -20 632 17 159 31 370 213 434 374 13 33 32 72 43 87 11 16 21 51 24 83 4
45 8 55 20 50 52 -20 114 -27 194 -23 l90 6 63 62 c66 65 93 108 130 206 38
100 45 158 37 287 -4 64 -5 116 -2 114 25 -13 143 -90 183 -119 76 -56 216
-98 347 -105 133 -6 426 11 595 35 204 30 388 95 502 178 43 32 118 132 172
229 95 173 110 202 134 265 13 36 50 119 81 186 31 66 56 125 56 131 0 6 9 39
21 74 19 57 20 80 16 215 -4 105 -10 162 -21 188 -9 21 -16 42 -16 47 0 5 24
9 53 9 93 0 288 110 388 218 77 82 159 261 159 344 0 13 8 18 28 18 15 0 83 5
151 10 137 11 179 27 207 82 14 27 14 39 4 89 -7 32 -21 65 -30 74 -17 15 -24
13 -102 -29 -64 -35 -95 -46 -129 -46 -72 0 -145 53 -184 132 -37 77 -93 138
-126 138 -46 0 -60 -30 -52 -119 8 -94 50 -202 98 -251 l35 -36 -21 -74 c-28
-102 -80 -191 -154 -265 -71 -72 -121 -97 -313 -162 -75 -26 -142 -53 -149
-62 -18 -24 -15 -47 8 -62 16 -11 24 -36 39 -135 17 -109 17 -131 5 -215 -8
-52 -29 -139 -48 -194 -117 -340 -240 -571 -356 -669 -155 -131 -420 -211
-781 -237 -239 -17 -368 9 -591 122 -125 62 -162 91 -291 222 -113 116 -118
119 -140 105 -46 -31 -45 -40 15 -139 101 -168 121 -361 55 -537 -26 -71 -71
-117 -128 -132 -51 -14 -321 -41 -333 -33 -5 3 -19 -5 -33 -18 -21 -19 -24
-31 -24 -90 0 -38 -7 -90 -16 -116 -85 -251 -237 -365 -555 -419 -181 -30
-415 -8 -527 50 -32 16 -144 128 -222 221 l-42 50 5 115 c3 63 10 127 16 142
5 15 33 50 61 78 42 44 51 49 56 33 32 -98 94 -183 133 -183 53 0 53 62 1 186
-22 52 -43 109 -47 127 -3 17 -39 113 -79 212 -132 329 -150 414 -140 690 7
235 21 340 57 450 16 50 36 126 44 170 11 54 35 121 75 206 33 70 60 129 60
133 0 21 111 165 165 212 72 64 73 76 3 95 -31 8 -49 7 -88 -6 -43 -14 -54
-24 -89 -80 -22 -35 -44 -66 -49 -69 -5 -3 -24 38 -42 92 -27 83 -32 107 -28
167 8 113 78 260 166 350 l43 44 62 -33 c34 -18 107 -58 162 -89 56 -31 121
-61 146 -66 25 -6 70 -22 100 -36 30 -13 66 -25 81 -25 15 0 67 -20 115 -45
85 -44 145 -57 158 -34 28 44 -84 125 -263 189 -197 72 -337 139 -434 208
-174 124 -265 240 -317 402 l-31 94 0 251 c1 331 16 689 34 798 18 108 48 202
91 287 18 36 44 101 58 145 32 99 106 257 166 352 116 182 145 237 137 258 -4
12 -12 14 -28 9 -40 -12 -130 -76 -141 -101 -5 -12 -15 -23 -20 -23 -5 0 -38
25 -72 55 -114 100 -196 272 -220 460 -3 28 -1 165 4 305 9 234 12 261 35 327
15 40 26 80 26 89 0 9 10 29 21 46 36 51 52 297 25 380 -37 111 -38 127 -17
172 32 64 176 157 346 222 33 12 80 32 105 43 91 40 226 63 340 58 141 -7 333
-51 440 -100 58 -27 154 -47 231 -47 53 0 62 6 49 30 -15 28 -80 62 -155 80
-38 10 -92 27 -120 38 -108 44 -312 83 -466 89 l-146 6 -134 -38 c-74 -21
-146 -47 -162 -57 -15 -11 -55 -30 -89 -44 -33 -13 -71 -30 -83 -38 -20 -13
-29 -13 -74 1 -46 15 -57 25 -118 107 -176 239 -174 376 8 621 20 28 45 66 54
85 63 123 272 304 462 399 24 12 50 33 59 47 25 37 35 104 19 126 -11 17 -15
16 -58 -14 -25 -18 -96 -69 -159 -112 -62 -44 -150 -111 -196 -148 -53 -45
-84 -65 -87 -56 -2 7 -18 60 -35 118 -41 141 -47 223 -25 346 24 136 53 212
106 287 38 52 62 73 129 111 45 26 105 56 133 66 29 10 66 22 82 28 100 35
142 37 268 12z"/>
<path d="M8565 10750 c-4 -6 0 -19 9 -29 9 -10 16 -22 16 -28 0 -10 30 -38
101 -92 49 -38 85 -95 109 -173 70 -231 56 -355 -53 -455 -56 -52 -70 -59
-246 -123 l-143 -52 -42 39 c-62 59 -142 123 -155 123 -17 0 -33 -38 -23 -57
5 -10 7 -23 5 -29 -2 -6 18 -36 45 -65 71 -79 88 -108 121 -197 61 -165 106
-225 146 -192 28 23 12 177 -26 251 l-18 37 31 6 c17 3 59 6 95 6 36 0 80 7
101 16 20 9 55 21 77 28 63 20 122 62 160 115 35 48 35 48 77 40 74 -14 225
-10 278 7 67 22 96 52 115 118 25 85 10 93 -92 52 -58 -24 -88 -30 -223 -41
l-65 -5 -2 182 -2 182 -41 82 c-45 92 -99 148 -178 188 -28 14 -53 30 -57 36
-3 5 -24 14 -46 20 -22 6 -46 13 -54 16 -7 3 -16 0 -20 -6z"/>
<path d="M7383 9970 c-32 -13 -29 -44 8 -110 57 -99 63 -114 75 -177 l12 -63
-109 0 c-121 0 -184 -17 -195 -53 -12 -38 20 -50 116 -42 240 20 499 -19 634
-95 109 -63 266 -239 306 -346 6 -16 40 -79 76 -140 35 -61 64 -120 64 -130 0
-11 25 -51 55 -89 30 -38 55 -75 55 -82 0 -6 43 -51 96 -100 55 -51 105 -107
119 -133 13 -25 32 -54 42 -65 15 -16 19 -36 19 -100 1 -44 3 -93 5 -110 10
-73 -42 -218 -111 -310 -76 -101 -75 -99 -55 -153 10 -26 34 -66 54 -88 66
-76 80 -179 39 -281 -34 -84 -79 -134 -161 -178 -100 -54 -192 -77 -320 -78
l-109 -2 -39 65 c-48 81 -93 129 -144 155 -22 11 -51 28 -64 38 -31 22 -63 22
-92 -2 -22 -18 -22 -20 -7 -43 9 -14 55 -60 101 -102 76 -69 89 -86 117 -154
36 -88 46 -162 35 -285 l-7 -86 -63 6 c-54 5 -70 2 -119 -20 -60 -27 -168
-123 -192 -169 -8 -15 -14 -36 -14 -47 0 -11 -4 -23 -10 -26 -9 -5 -83 20
-185 63 -30 13 -70 17 -170 17 -129 0 -130 0 -206 -37 -79 -38 -146 -102 -184
-178 -25 -48 -32 -152 -12 -168 35 -29 129 44 177 138 39 76 104 122 201 140
82 16 203 -20 274 -81 11 -9 31 -20 45 -24 14 -4 31 -16 38 -27 10 -13 20 -17
35 -12 32 9 117 94 134 133 15 35 66 106 93 129 23 19 101 58 133 66 34 8 133
-14 235 -54 140 -54 280 -215 355 -410 44 -114 49 -147 43 -245 -13 -187 -49
-333 -104 -424 -24 -40 -52 -98 -52 -106 0 -2 14 -8 31 -14 51 -18 93 -14 117
12 27 28 61 105 62 137 0 13 6 42 14 65 19 54 36 172 36 245 0 40 4 62 13 64
77 22 216 50 272 54 57 3 90 -1 180 -26 124 -35 249 -89 297 -130 76 -63 100
-75 127 -66 29 10 70 78 97 159 36 107 104 199 184 250 49 31 154 62 225 68
67 5 165 34 165 49 0 18 -71 38 -139 38 -143 0 -303 -47 -396 -118 -75 -56
-150 -173 -181 -280 -3 -9 -21 -4 -64 18 -138 70 -301 114 -474 130 -89 8
-107 7 -192 -16 -52 -13 -98 -24 -102 -24 -4 0 -5 23 -4 50 5 61 -19 140 -57
195 -16 22 -31 50 -35 61 -11 37 -121 182 -166 221 -95 81 -177 134 -239 153
-35 11 -71 20 -81 20 -44 0 -51 9 -35 47 11 25 15 73 15 158 l0 122 138 -1
c108 -1 151 3 202 18 97 29 196 87 276 163 62 59 74 77 93 133 30 94 39 253
17 305 -24 56 -64 115 -104 150 l-34 30 40 42 c71 75 135 233 145 358 6 77 -5
157 -22 163 -37 12 6 21 122 25 346 13 485 53 581 170 51 62 56 101 21 166
-16 28 -32 51 -37 51 -4 0 -20 -14 -35 -32 -16 -17 -43 -49 -62 -70 -56 -64
-222 -134 -383 -162 l-87 -15 -98 46 c-53 25 -122 62 -153 83 -60 41 -169 150
-190 190 -7 14 -41 68 -76 120 -34 52 -90 147 -125 210 -67 124 -141 239 -190
294 -47 54 -174 147 -237 174 -59 25 -158 48 -253 58 l-55 6 4 54 c4 50 2 57
-53 146 -32 51 -78 110 -102 131 -48 40 -47 40 -80 27z"/>
<path d="M9563 9888 c-35 -52 -36 -117 -3 -203 61 -161 52 -352 -22 -500 -36
-71 -60 -151 -53 -174 3 -10 20 -24 38 -31 33 -12 71 -30 137 -65 65 -35 196
-156 267 -249 37 -48 91 -118 120 -154 28 -36 81 -123 117 -194 113 -219 163
-398 172 -623 6 -131 4 -150 -25 -288 -34 -161 -64 -233 -154 -366 -142 -211
-306 -360 -472 -429 -216 -91 -238 -106 -211 -147 20 -31 51 -32 144 -6 74 21
164 63 251 118 60 39 248 224 288 285 33 48 45 52 97 25 151 -76 179 -93 201
-119 14 -16 25 -35 25 -41 0 -6 32 -52 70 -103 71 -94 107 -118 136 -93 20 16
17 53 -6 99 -11 22 -20 49 -20 60 0 77 -165 219 -322 277 l-68 25 19 27 c37
53 83 155 96 215 7 33 23 95 36 136 22 68 24 91 22 255 -1 99 -7 206 -14 238
l-12 58 109 105 c60 57 127 114 149 125 78 39 155 60 199 54 22 -4 52 -2 66 4
33 14 86 58 78 66 -15 15 -130 34 -204 35 -75 0 -86 -3 -165 -42 -124 -63
-201 -119 -225 -164 -11 -22 -24 -38 -29 -37 -6 1 -26 48 -45 105 -20 57 -44
115 -53 128 -9 14 -17 32 -17 42 0 20 -69 123 -161 239 l-68 86 49 51 c27 28
58 68 68 89 10 21 36 67 57 103 25 44 40 83 44 120 l6 55 90 8 c50 5 104 8
120 8 40 -1 160 -56 211 -97 64 -51 85 -53 123 -7 17 20 31 46 31 56 0 28 -45
67 -77 67 -16 0 -38 6 -49 14 -11 8 -47 22 -81 30 -33 9 -76 23 -97 31 -24 10
-74 16 -151 17 -63 1 -115 4 -115 7 -10 197 -21 304 -36 333 -18 36 -171 189
-219 219 -38 24 -105 26 -105 3 0 -9 34 -49 75 -90 112 -108 152 -219 162
-444 5 -110 4 -119 -27 -213 -30 -88 -63 -147 -147 -256 -1 -2 -22 18 -45 45
-24 26 -75 83 -114 126 -38 43 -89 109 -111 147 l-42 69 20 39 c19 35 20 51
16 213 -5 149 -10 194 -36 305 -34 143 -58 215 -72 215 -5 0 -21 -19 -36 -42z"/>
<path d="M7380 8977 c-42 -21 -31 -48 35 -89 33 -20 68 -37 78 -37 9 -1 25
-14 35 -29 9 -16 55 -72 102 -125 47 -54 84 -100 83 -103 0 -3 -23 -40 -51
-82 -92 -144 -102 -180 -113 -401 -11 -218 -3 -273 52 -342 16 -20 29 -40 29
-43 0 -3 -44 -6 -97 -6 -176 0 -267 -35 -414 -156 -84 -70 -122 -121 -117
-156 7 -53 69 -28 213 87 38 30 108 74 155 98 l85 42 120 -1 c72 0 148 -7 190
-17 92 -21 175 -21 175 -1 0 29 -46 62 -96 69 -109 15 -108 15 -116 81 -4 32
-21 98 -37 146 -37 107 -40 177 -11 319 24 116 53 186 105 255 46 60 54 65 78
52 12 -6 55 -7 114 -3 125 10 143 24 154 120 5 38 5 72 1 76 -4 4 -32 1 -62
-7 -128 -35 -225 -2 -428 145 -69 50 -144 96 -172 105 -58 19 -58 19 -90 3z"/>
<path d="M8031 5234 c-20 -15 -22 -21 -16 -68 4 -28 16 -61 25 -74 51 -64 45
-182 -13 -294 -45 -88 -45 -88 -162 -71 -142 20 -213 15 -260 -21 -21 -16 -40
-37 -42 -47 -10 -36 -80 -68 -225 -104 -138 -34 -168 -48 -168 -82 0 -31 77
-42 155 -22 22 6 67 17 100 24 68 16 158 51 257 101 l69 35 52 -16 c29 -8 78
-29 110 -46 l58 -31 172 5 c225 7 428 23 475 38 60 19 113 49 170 95 29 23 62
46 75 50 36 11 104 72 121 108 18 38 22 141 6 151 -17 11 -71 -30 -152 -114
-92 -96 -156 -129 -326 -172 -121 -31 -345 -58 -377 -45 -17 6 -15 10 13 39
42 43 61 112 62 222 1 159 -6 210 -36 265 -46 85 -93 109 -143 74z"/>
<path d="M9640 5039 c-8 -15 -8 -33 0 -67 7 -26 23 -97 36 -159 13 -61 32
-138 43 -170 33 -97 51 -179 51 -225 0 -169 -134 -297 -333 -318 -81 -9 -83
-9 -217 37 -94 32 -141 53 -153 70 -10 12 -24 23 -31 23 -6 0 -36 -25 -66 -56
-170 -173 -427 -269 -775 -289 -136 -8 -236 8 -392 63 -194 70 -266 111 -388
222 -112 101 -139 115 -169 84 -21 -21 -21 -25 13 -92 38 -75 89 -117 248
-200 117 -61 128 -69 124 -92 -1 -14 2 -57 9 -96 11 -62 10 -78 -5 -123 -19
-58 -31 -69 -174 -157 -121 -74 -141 -91 -141 -115 0 -34 37 -42 152 -36 137
8 173 25 226 105 21 33 44 74 50 92 14 39 15 198 3 253 -11 45 -2 47 72 15 50
-22 64 -23 312 -23 174 0 285 4 335 13 87 16 390 114 438 143 18 10 39 19 46
19 7 0 37 19 65 41 l52 42 23 -22 c28 -26 112 -59 182 -71 80 -13 269 3 334
29 103 42 125 56 183 115 89 91 90 96 84 260 -4 109 -12 164 -32 241 -15 55
-29 114 -32 130 -19 137 -50 224 -111 303 -28 37 -47 41 -62 11z"/>
</g>
</svg>
